<?xml version="1.0" encoding="utf-8"?>
<!-- Generator: Adobe Illustrator 26.0.1, SVG Export Plug-In . SVG Version: 6.00 Build 0)  -->
<svg version="1.1" id="Layer_1" xmlns="http://www.w3.org/2000/svg" xmlns:xlink="http://www.w3.org/1999/xlink" x="0px" y="0px"
	 viewBox="0 0 24 24" style="enable-background:new 0 0 24 24;" xml:space="preserve">
<style type="text/css">
	.st0{fill:#265886;}
</style>
<path class="st0" d="M3,6C1.9,6,1,6.9,1,8v7h2c0,1.7,1.3,3,3,3s3-1.3,3-3h6c0,1.7,1.3,3,3,3s3-1.3,3-3h2V8c0-1.1-0.9-2-2-2H3
	 M2.5,7.5h4V10h-4V7.5 M8,7.5h4V10H8V7.5 M13.5,7.5h4V10h-4V7.5 M19,7.5h2.5V13L19,11V7.5 M6,13.5c0.8,0,1.5,0.7,1.5,1.5
	S6.8,16.5,6,16.5S4.5,15.8,4.5,15S5.2,13.5,6,13.5 M18,13.5c0.8,0,1.5,0.7,1.5,1.5s-0.7,1.5-1.5,1.5s-1.5-0.7-1.5-1.5
	S17.2,13.5,18,13.5z"/>
</svg>
