<?xml version="1.0" encoding="utf-8"?>
<!-- Generator: Adobe Illustrator 26.0.1, SVG Export Plug-In . SVG Version: 6.00 Build 0)  -->
<svg version="1.1" id="Layer_1" xmlns="http://www.w3.org/2000/svg" xmlns:xlink="http://www.w3.org/1999/xlink" x="0px" y="0px"
	 viewBox="0 0 24 24" style="enable-background:new 0 0 24 24;" xml:space="preserve">
<style type="text/css">
	.st0{fill:#265886;}
</style>
<path class="st0" d="M16.5,4v4.2l2.9,1.7l-0.8,1.2L15,9V4H16.5 M16,13c1.4,0,2.5-0.5,3.5-1.5c1-1,1.5-2.1,1.5-3.5
	c0-1.4-0.5-2.5-1.5-3.5c-1-1-2.1-1.5-3.5-1.5c-1.4,0-2.6,0.5-3.5,1.5c-1,1-1.5,2.1-1.5,3.5c0,1.4,0.5,2.6,1.5,3.5S14.6,13,16,13
	 M13.5,19c0.4,0,0.8-0.2,1.1-0.5c0.3-0.3,0.4-0.7,0.4-1c0-0.4-0.1-0.8-0.4-1.1c-0.3-0.3-0.6-0.4-1.1-0.4s-0.8,0.1-1.1,0.4
	c-0.3,0.3-0.4,0.6-0.4,1.1c0,0.4,0.1,0.7,0.4,1C12.7,18.8,13.1,19,13.5,19 M3,13h8.1C9.7,11.6,9,10,9,8H3V13 M4.5,19
	c0.4,0,0.8-0.2,1.1-0.5c0.3-0.3,0.4-0.7,0.4-1c0-0.4-0.1-0.8-0.4-1.1C5.3,16.1,4.9,16,4.5,16s-0.8,0.1-1.1,0.4
	C3.1,16.7,3,17.1,3,17.5c0,0.4,0.1,0.7,0.4,1C3.7,18.8,4.1,19,4.5,19 M16,1c1.9,0,3.6,0.7,5,2c1.4,1.4,2,3,2,4.9
	c0,1.8-0.6,3.3-1.7,4.6c-1.2,1.3-2.6,2.1-4.3,2.3V18c0,0.8-0.3,1.6-1,2.2V22c0,0.3-0.1,0.5-0.3,0.7C15.5,22.9,15.3,23,15,23h-1
	c-0.3,0-0.5-0.1-0.7-0.3C13.1,22.5,13,22.3,13,22v-1H5v1c0,0.3-0.1,0.5-0.3,0.7C4.5,22.9,4.3,23,4,23H3c-0.3,0-0.5-0.1-0.7-0.3
	C2.1,22.5,2,22.3,2,22v-1.8c-0.7-0.6-1-1.4-1-2.2V8c0-1.6,0.7-2.7,2-3.2C4.4,4.3,6.4,4,9,4c0.1,0,0.3,0,0.6,0c0.3,0,0.5,0,0.6,0
	C11.6,2,13.6,1,16,1z"/>
</svg>
