<?xml version="1.0" encoding="utf-8"?>
<!-- Generator: Adobe Illustrator 26.0.1, SVG Export Plug-In . SVG Version: 6.00 Build 0)  -->
<svg version="1.1" id="Layer_1" xmlns="http://www.w3.org/2000/svg" xmlns:xlink="http://www.w3.org/1999/xlink" x="0px" y="0px"
	 viewBox="0 0 24 24" style="enable-background:new 0 0 24 24;" xml:space="preserve">
<style type="text/css">
	.st0{fill:#265886;}
</style>
<path class="st0" d="M3,3h14v2H3V3 M23,6v4.5l-8.2,1.7c0.2,0.4,0.2,0.8,0.2,1.3c0,1.4-0.8,2.6-2,3.2V17v2h3v2H4c-1.7,0-3-1.3-3-3v-1
	h2v1c0,0.6,0.4,1,1,1h1v-2.3c-1.8-0.6-3-2.3-3-4.2C2,10,4,8,6.5,8H9V6h2v2h10V6H23 M11,19v-2H7v2H11 M7.5,10C6.1,10,5,10.9,5,12
	s1.1,2,2.5,2s2.5-0.9,2.5-2S8.9,10,7.5,10z"/>
</svg>
