<?xml version="1.0" encoding="utf-8"?>
<!-- Generator: Adobe Illustrator 26.0.1, SVG Export Plug-In . SVG Version: 6.00 Build 0)  -->
<svg version="1.1" id="Layer_1" xmlns="http://www.w3.org/2000/svg" xmlns:xlink="http://www.w3.org/1999/xlink" x="0px" y="0px"
	 viewBox="0 0 24 24" style="enable-background:new 0 0 24 24;" xml:space="preserve">
<style type="text/css">
	.st0{fill:#265886;}
</style>
<path class="st0" d="M18,11H6V6h12 M16.5,17c-0.8,0-1.5-0.7-1.5-1.5c0-0.8,0.7-1.5,1.5-1.5c0.8,0,1.5,0.7,1.5,1.5
	C18,16.3,17.3,17,16.5,17 M7.5,17C6.7,17,6,16.3,6,15.5C6,14.7,6.7,14,7.5,14S9,14.7,9,15.5C9,16.3,8.3,17,7.5,17 M4,16
	c0,0.9,0.4,1.7,1,2.2V20c0,0.6,0.4,1,1,1h1c0.6,0,1-0.4,1-1v-1h8v1c0,0.6,0.4,1,1,1h1c0.6,0,1-0.4,1-1v-1.8c0.6-0.5,1-1.3,1-2.2V6
	c0-3.5-3.6-4-8-4S4,2.5,4,6V16z"/>
</svg>
