<?xml version="1.0" encoding="utf-8"?>
<!-- Generator: Adobe Illustrator 26.0.1, SVG Export Plug-In . SVG Version: 6.00 Build 0)  -->
<svg version="1.1" id="Layer_1" xmlns="http://www.w3.org/2000/svg" xmlns:xlink="http://www.w3.org/1999/xlink" x="0px" y="0px"
	 viewBox="0 0 50 50" style="enable-background:new 0 0 50 50;" xml:space="preserve">
<style type="text/css">
	.st0{fill-rule:evenodd;clip-rule:evenodd;fill:#265886;}
</style>
<path class="st0" d="M10,28.3c0.9,0,1.6,0.7,1.6,1.6s-0.7,1.6-1.6,1.6s-1.6-0.7-1.6-1.6S9.1,28.3,10,28.3z M14.3,30
	c0-2.5-1.9-4.5-4.3-4.5s-4.3,2-4.3,4.5s1.9,4.5,4.3,4.5S14.3,32.5,14.3,30z M39,30c0-0.9,0.7-1.6,1.6-1.6s1.6,0.7,1.6,1.6
	s-0.7,1.6-1.6,1.6S39,30.9,39,30z M40.5,25.5c-2.4,0-4.3,2-4.3,4.5s1.9,4.5,4.3,4.5s4.3-2,4.3-4.5S42.9,25.5,40.5,25.5z M15.5,31.4
	h19.6c-0.1-0.5-0.2-0.9-0.2-1.4c0-3.2,2.5-5.8,5.6-5.8s5.6,2.6,5.6,5.8c0,0.5-0.1,1-0.2,1.4h3V30v-8.4l-5.6-0.4l-7.5-7.7h-26
	c-3.3,0-6.1,2.7-6.4,6.1l-0.1,1.6H1v10.2h3.6c-0.1-0.5-0.2-0.9-0.2-1.4c0-3.2,2.5-5.8,5.6-5.8s5.6,2.6,5.6,5.8
	C15.6,30.5,15.6,30.9,15.5,31.4z"/>
</svg>
