<?xml version="1.0" encoding="utf-8"?>
<!-- Generator: Adobe Illustrator 26.0.1, SVG Export Plug-In . SVG Version: 6.00 Build 0)  -->
<svg version="1.1" id="Layer_1" xmlns="http://www.w3.org/2000/svg" xmlns:xlink="http://www.w3.org/1999/xlink" x="0px" y="0px"
	 viewBox="0 0 24 24" style="enable-background:new 0 0 24 24;" xml:space="preserve">
<style type="text/css">
	.st0{fill:none;}
	.st1{fill:#265886;}
</style>
<g>
	<path class="st0" d="M16.1,2.8c-2.8,0-5,2.2-5,5s2.2,5,5,5s5-2.2,5-5S18.9,2.8,16.1,2.8z M17.1,9.8v1v1h-2v-1v-1v-6h2V9.8z"/>
	<path class="st0" d="M3.1,7.8v5h8.1c-1.3-1.3-2.1-3-2.1-5H3.1z"/>
	<circle class="st0" cx="13.6" cy="17.3" r="1.5"/>
	<circle class="st0" cx="4.6" cy="17.3" r="1.5"/>
	<path class="st1" d="M16.1,0.8c-2.4,0-4.5,1.2-5.8,3H9.1C6.5,3.8,4.6,4,3.2,4.6C1.8,5.1,1.1,6.2,1.1,7.8v10c0,0.8,0.3,1.6,1,2.2
		v1.8c0,0.3,0.1,0.5,0.3,0.7s0.4,0.3,0.7,0.3h1c0.3,0,0.5-0.1,0.7-0.3c0.2-0.2,0.3-0.4,0.3-0.7v-1H13v1c0,0.3,0.1,0.5,0.3,0.7
		s0.4,0.3,0.7,0.3h1c0.3,0,0.5-0.1,0.7-0.3c0.2-0.2,0.3-0.4,0.3-0.7V20c0.7-0.6,1-1.4,1-2.2v-3.1c3.4-0.5,6-3.4,6-6.9
		C23.1,3.9,20,0.8,16.1,0.8z M4.6,18.8c-0.8,0-1.5-0.7-1.5-1.5s0.7-1.5,1.5-1.5s1.5,0.7,1.5,1.5C6.1,18.1,5.5,18.8,4.6,18.8z
		 M3.1,12.8v-5h6c0,2,0.8,3.7,2.1,5H3.1z M13.6,18.8c-0.8,0-1.5-0.7-1.5-1.5s0.6-1.5,1.5-1.5c0.8,0,1.5,0.7,1.5,1.5
		C15.1,18.1,14.4,18.8,13.6,18.8z M16.1,12.8c-2.8,0-5-2.2-5-5s2.2-5,5-5s5,2.2,5,5S18.9,12.8,16.1,12.8z"/>
	<polygon class="st1" points="15.1,3.8 15.1,9.8 15.1,10.8 15.1,11.8 17.1,11.8 17.1,10.8 17.1,9.8 17.1,3.8 	"/>
	<polygon class="st1" points="12.1,8.8 18.1,8.8 19.1,8.8 20.1,8.8 20.1,6.8 19.1,6.8 18.1,6.8 12.1,6.8 	"/>
</g>
</svg>
