<?xml version="1.0" encoding="utf-8"?>
<!-- Generator: Adobe Illustrator 26.0.1, SVG Export Plug-In . SVG Version: 6.00 Build 0)  -->
<svg version="1.1" id="Layer_1" xmlns="http://www.w3.org/2000/svg" xmlns:xlink="http://www.w3.org/1999/xlink" x="0px" y="0px"
	 viewBox="0 0 24 24" style="enable-background:new 0 0 24 24;" xml:space="preserve">
<style type="text/css">
	.st0{fill:#265886;}
</style>
<path class="st0" d="M16,6l3,4h2c1.1,0,2,0.9,2,2v3h-2c0,1.7-1.3,3-3,3s-3-1.3-3-3H9c0,1.7-1.3,3-3,3s-3-1.3-3-3H1v-3
	c0-1.1,0.9-2,2-2l3-4H16 M10.5,7.5H6.8L4.9,10h5.6V7.5 M12,7.5V10h5.1l-1.9-2.5H12 M6,13.5c-0.8,0-1.5,0.7-1.5,1.5s0.7,1.5,1.5,1.5
	s1.5-0.7,1.5-1.5S6.8,13.5,6,13.5 M18,13.5c-0.8,0-1.5,0.7-1.5,1.5s0.7,1.5,1.5,1.5s1.5-0.7,1.5-1.5S18.8,13.5,18,13.5z"/>
</svg>
